{"title":"Ninja: Shadow of a.Tear.2013.True.1080p.BluRay.5.1.x264 . NVEE","uid":10444776,"size":2189493863,"categoryP":"video","categoryS":"hd___movies","magnet":"?xt=urn:btih:755000c081178b7b28fccfbe381b5a4e23b183cd&amp;dn=Ninja%3A+Shadow+of+a.Tear.2013.True.1080p.BluRay.5.1.x264+.+NVEE&amp;tr=udp%3A%2F%2Ftracker.openbittorrent.com%3A80&amp;tr=udp%3A%2F%2Fopen.demonii.com%3A1337&amp;tr=udp%3A%2F%2Ftracker.coppersurfer.tk%3A6969&amp;tr=udp%3A%2F%2Fexodus.desync.com%3A6969","seeders":1,"leechers":1,"uploader":".NVEE","files":-1,"time":1403936339,"description":"\n\nQuick note :\nPlease seed to a Share Ratio of at least 1.1\nIf you require a torrent release I have posted in the past, not seeding,...\nPlease do not hesitate to inform me in any means you find fit to do so.\nTorrent requests also &quot;Always Welcome.&quot;\n\n\nFULL_INFOs\n\n99.99% --- SYNCED GUARANTEED \n\n&quot;Totally scrutinized / analyzed to be a verified torrent.&quot;\n___________________________________________\n\nSource : Blu-ray ~ 1080p\n\n\n\nSpoken Language : English\n\nAudio : 6 ~ Channels Only\n\n\nSubs Info :\n\nx2 ~ English .srt ~ x1 ~ Spanish .srt ~ x1 ~ English_Hearing_Impared UTF-8 Embedded ~ x1 ~ Spanish UTF-8 Embedded\n\nAll Japanese audio hard coded in English\n\nText #1\nID : 3\nFormat : Timed Text\nCodec ID : tx3g\nDuration : 1h 26mn\nBit rate mode : Variable\nBit rate : 23 bps\nStream size : 14.9 KiB (0%)\nLanguage : English\nEncoded date : UTC 2014-06-26 16:56:58\nTagged date : UTC 2014-06-26 16:56:58\n\nText #2\nID : 4\nFormat : Timed Text\nCodec ID : tx3g\nDuration : 1h 27mn\nBit rate mode : Variable\nBit rate : 26 bps\nStream size : 16.5 KiB (0%)\nLanguage : Spanish\nEncoded date : UTC 2014-06-26 16:56:58\nTagged date : UTC 2014-06-26 16:56:58\nAll .srt UTF-8 &amp; .idx subs can be turned On/Off\n_____________________________________\n---------------------------------------------------------------------------------\n\nGeneral Metadata\n\nComplete name : Ninja: Shadow of a.Tear.2013.True.1080p.BluRay.5.1.x264 . NVEE.mp4\nFormat : MPEG-4\nFormat profile : Base Media\nCodec ID : isom\nFile size : 2.04 GiB\nDuration : 1h 34mn\nOverall bit rate mode : Variable\nOverall bit rate : 3 082 Kbps\nEncoded date : UTC 2014-06-26 16:46:36\nTagged date : UTC 2014-06-26 16:46:36\n\n\nVideo\n\nID : 1\nFormat : AVC\nFormat/Info : Advanced Video Codec\nFormat profile : &lt;a class=&quot;__cf_email__&quot; href=&quot;/cdn-cgi/l/email-protection&quot; data-cfemail=&quot;6e260709062e225a405f&quot;&gt;[email&amp;#160;protected]&lt;/a&gt;&lt;script cf-hash='f9e31' type=&quot;text/javascript&quot;&gt;\n/* &lt;![CDATA[ */!function(){try{var t=&quot;currentScript&quot;in document?document.currentScript:function(){for(var t=document.getElementsByTagName(&quot;script&quot;),e=t.length;e--;)if(t[e].getAttribute(&quot;cf-hash&quot;))return t[e]}();if(t&amp;&amp;t.previousSibling){var e,r,n,i,c=t.previousSibling,a=c.getAttribute(&quot;data-cfemail&quot;);if(a){for(e=&quot;&quot;,r=parseInt(a.substr(0,2),16),n=2;a.length-n;n+=2)i=parseInt(a.substr(n,2),16)^r,e+=String.fromCharCode(i);e=document.createTextNode(e),c.parentNode.replaceChild(e,c)}}}catch(u){}}();/* ]]&gt; */&lt;/script&gt;\nFormat settings, CABAC : Yes\nFormat settings, ReFrames : 3 frames\nCodec ID : avc1\nCodec ID/Info : Advanced Video Coding\nDuration : 1h 34mn\nBit rate : 2 441 Kbps\nMaximum bit rate : 16.6 Mbps\nWidth : 1 920 pixels\nHeight : 1 080 pixels\nDisplay aspect ratio : 16:9\nFrame rate mode : Constant\nFrame rate : 23.976 fps\nColor space : YUV\nChroma subsampling : 4:2:0\nBit depth : 8 bits\nScan type : Progressive\nBits/(Pixel*Frame) : 0.049\nStream size : 1.61 GiB (79%)\nWriting library : x264 core 142 r2431 ac76440\nEncoded from Physical Blu-ray / Region A\n\n\nAudio\n\nID : 2\nFormat : AC-3\nFormat/Info : Audio Coding 3\nMode extension : CM (complete main)\nFormat settings, Endianness : Big\nCodec ID : ac-3\nDuration : 1h 34mn\nBit rate mode : Constant\nBit rate : 640 Kbps\nChannel(s) : 6 channels\nChannel positions : Front: L C R, Side: L R, LFE\nSampling rate : 48.0 KHz\nBit depth : 16 bits\nCompression mode : Lossy\nStream size : 434 MiB (21%)\nLanguage : English\nEncoded date : UTC 2014-06-26 16:55:16\nTagged date : UTC 2014-06-26 16:56:58\nEncoded from Physical Blu-ray 6 Channel audio &quot;Always&quot;.\n\n\nEnj0y !","torrent":{"xt":"urn:btih:755000c081178b7b28fccfbe381b5a4e23b183cd","amp;dn":"Ninja%3A+Shadow+of+a.Tear.2013.True.1080p.BluRay.5.1.x264+.+NVEE","amp;tr":["udp%3A%2F%2Ftracker.openbittorrent.com%3A80","udp%3A%2F%2Fopen.demonii.com%3A1337","udp%3A%2F%2Ftracker.coppersurfer.tk%3A6969","udp%3A%2F%2Fexodus.desync.com%3A6969"],"infoHash":"755000c081178b7b28fccfbe381b5a4e23b183cd","infoHashBuffer":{"type":"Buffer","data":[117,80,0,192,129,23,139,123,40,252,207,190,56,27,90,78,35,177,131,205]},"announce":[],"urlList":[]}}